<?xml version="1.0" encoding="iso-8859-1"?>
<!-- Generator: Adobe Illustrator 16.0.0, SVG Export Plug-In . SVG Version: 6.00 Build 0)  -->
<!DOCTYPE svg PUBLIC "-//W3C//DTD SVG 1.1//EN" "http://www.w3.org/Graphics/SVG/1.1/DTD/svg11.dtd">
<svg version="1.1" id="Capa_1" xmlns="http://www.w3.org/2000/svg" xmlns:xlink="http://www.w3.org/1999/xlink" x="0px" y="0px"
	 width="104.03px" height="104.03px" viewBox="0 0 104.03 104.03" style="enable-background:new 0 0 104.03 104.03;"
	 xml:space="preserve">
<g>
	<g>
		<path d="M9.349,72.195h85.334c2.206,0,4-1.795,4-4V18.727c0-2.207-1.794-4-4-4H9.349c-2.206,0-4,1.793-4,4v49.469
			C5.349,70.4,7.143,72.195,9.349,72.195z M9.349,18.727h85.334l0.003,49.469H9.349V18.727z"/>
		<path d="M103.031,84.234c-0.123,0.053-0.256,0.084-0.397,0.084c-0.007-0.001-0.013-0.001-0.021,0H1.418
			c-0.135,0-0.262-0.035-0.382-0.086l0,0c-0.395,0-0.752,0.23-0.918,0.588c-0.184,0.4-0.151,0.844,0.089,1.219
			c0.422,0.658,1.128,1.763,17.189,2.563c9.076,0.453,21.174,0.701,34.063,0.701c11.572,0,49.537-0.228,52.212-3.147
			c0.261-0.285,0.387-0.64,0.354-1C103.98,84.637,103.551,84.24,103.031,84.234z M59.166,87.367H44.865c-0.331,0-0.6-0.269-0.6-0.6
			s0.269-0.6,0.6-0.6h14.301c0.33,0,0.6,0.269,0.6,0.6S59.496,87.367,59.166,87.367z"/>
		<path d="M1.036,83.232h101.985c0.003,0,0.007,0.002,0.011,0.002c0.354-0.152,0.603-0.505,0.603-0.916
			c0-0.285-0.121-0.545-0.313-0.727l-6.15-8.366c-0.188-0.256-0.488-0.407-0.807-0.407H7.947c-0.311,0-0.604,0.146-0.793,0.391
			l-6.529,8.5c-0.232,0.303-0.272,0.711-0.104,1.053C0.63,82.98,0.817,83.141,1.036,83.232z M8.44,74.818h87.417l4.779,6.5H3.447
			L8.44,74.818z"/>
		<path d="M29.048,43.728c0,2.139,0.853,4.076,2.233,5.499V38.236C29.901,39.656,29.048,41.59,29.048,43.728z"/>
		<path d="M45.81,36.494c0.48-1.191,1.173-2.272,2.029-3.201c-0.835-0.797-1.848-1.407-2.969-1.779v5.261
			C45.178,36.667,45.49,36.572,45.81,36.494z"/>
		<path d="M36.532,33.748v17.863c0.14,0.008,0.278,0.021,0.42,0.021h2.081c-0.784-1.472-1.231-3.151-1.231-4.935
			c0-2.19,0.672-4.22,1.819-5.901v-9.164C38.424,32.083,37.37,32.812,36.532,33.748z"/>
		<path d="M43.87,37.186V31.25c-0.479-0.091-0.971-0.141-1.477-0.141c-0.613,0-1.201,0.091-1.773,0.224v8.209
			C41.535,38.561,42.639,37.762,43.87,37.186z"/>
		<path d="M35.066,36.061c-1.021,0.25-1.962,0.703-2.785,1.306v12.728c0.946,0.695,2.049,1.185,3.25,1.403V35.115
			C35.358,35.42,35.198,35.732,35.066,36.061z"/>
		<path d="M57.93,31.109c-0.025,0-0.051,0.003-0.077,0.003v27.308h3.25v-26.82C60.102,31.283,59.037,31.109,57.93,31.109z"/>
		<path d="M53.764,31.976V58.42h3.089V31.171C55.765,31.282,54.728,31.558,53.764,31.976z"/>
		<path d="M40.62,44.882v6.06c0.59,1.956,1.734,3.668,3.25,4.961V39.914C42.352,41.208,41.209,42.923,40.62,44.882z"/>
		<path d="M49.514,35.34v23.011c0.386,0.043,0.776,0.069,1.174,0.069h2.076V32.472C51.491,33.192,50.386,34.173,49.514,35.34z"/>
		<path d="M48.178,37.699c-1.197,0.293-2.311,0.795-3.308,1.458v17.505c1.089,0.726,2.32,1.252,3.644,1.53V36.954
			C48.393,37.198,48.281,37.445,48.178,37.699z"/>
		<path d="M70.693,39.435v16.929c1.281-0.945,2.344-2.168,3.088-3.59v-9.75C73.035,41.605,71.975,40.379,70.693,39.435z"/>
		<path d="M67.763,37.92c-0.331-0.877-0.78-1.694-1.321-2.441v22.75c1.164-0.222,2.256-0.637,3.25-1.208v-18.23
			C69.084,38.44,68.441,38.143,67.763,37.92z"/>
		<path d="M62.103,31.979V58.42h2.361c0.33,0,0.655-0.021,0.978-0.049V34.288C64.496,33.316,63.365,32.528,62.103,31.979z"/>
		<path d="M31.282,38.236c0.308-0.317,0.643-0.607,1-0.869"/>
		<path d="M35.532,35.115c0.281-0.495,0.623-0.946,1-1.367"/>
		<path d="M39.62,31.633c0.324-0.122,0.657-0.22,1-0.299"/>
		<path d="M43.87,31.25c0.342,0.065,0.675,0.156,1,0.263"/>
		<path d="M48.514,36.954c0.284-0.571,0.622-1.108,1-1.615"/>
		<path d="M52.764,32.472c0.323-0.183,0.657-0.347,1-0.496"/>
		<path d="M56.853,31.171c0.33-0.034,0.662-0.056,1-0.059"/>
		<path d="M61.103,31.6c0.343,0.108,0.675,0.238,1,0.379"/>
		<path d="M65.443,34.288c0.361,0.371,0.695,0.769,1,1.19"/>
		<path d="M69.693,38.79c0.344,0.198,0.68,0.41,1,0.645"/>
		<path d="M73.781,43.023c0.467,0.886,0.804,1.85,1,2.863"/>
	</g>
</g>
<g>
</g>
<g>
</g>
<g>
</g>
<g>
</g>
<g>
</g>
<g>
</g>
<g>
</g>
<g>
</g>
<g>
</g>
<g>
</g>
<g>
</g>
<g>
</g>
<g>
</g>
<g>
</g>
<g>
</g>
</svg>
